<mxfile host="app.diagrams.net" modified="2023-05-20T23:10:50.204Z" agent="Mozilla/5.0 (X11; Linux x86_64; rv:109.0) Gecko/20100101 Firefox/112.0" etag="ivV8tUXcHTXAQR6ciA_d" version="21.3.0" type="device">
  <diagram id="C5RBs43oDa-KdzZeNtuy" name="Page-1">
    <mxGraphModel dx="1304" dy="690" grid="1" gridSize="10" guides="1" tooltips="1" connect="1" arrows="1" fold="1" page="1" pageScale="1" pageWidth="827" pageHeight="1169" math="0" shadow="0">
      <root>
        <mxCell id="WIyWlLk6GJQsqaUBKTNV-0" />
        <mxCell id="WIyWlLk6GJQsqaUBKTNV-1" parent="WIyWlLk6GJQsqaUBKTNV-0" />
        <mxCell id="3TPBliiVLT5k9kqOGAwY-2" style="edgeStyle=orthogonalEdgeStyle;rounded=0;orthogonalLoop=1;jettySize=auto;html=1;exitX=0.5;exitY=1;exitDx=0;exitDy=0;entryX=0.5;entryY=0;entryDx=0;entryDy=0;" parent="WIyWlLk6GJQsqaUBKTNV-1" source="WIyWlLk6GJQsqaUBKTNV-3" target="3TPBliiVLT5k9kqOGAwY-0" edge="1">
          <mxGeometry relative="1" as="geometry">
            <Array as="points">
              <mxPoint x="443" y="100" />
              <mxPoint x="443" y="130" />
            </Array>
          </mxGeometry>
        </mxCell>
        <mxCell id="WIyWlLk6GJQsqaUBKTNV-3" value="Módulo Liga" style="rounded=1;whiteSpace=wrap;html=1;fontSize=12;glass=0;strokeWidth=1;shadow=0;fillColor=#dae8fc;strokeColor=#6c8ebf;" parent="WIyWlLk6GJQsqaUBKTNV-1" vertex="1">
          <mxGeometry x="384.5" y="60" width="120" height="40" as="geometry" />
        </mxCell>
        <mxCell id="3TPBliiVLT5k9kqOGAwY-9" style="edgeStyle=orthogonalEdgeStyle;rounded=0;orthogonalLoop=1;jettySize=auto;html=1;entryX=0.5;entryY=0;entryDx=0;entryDy=0;" parent="WIyWlLk6GJQsqaUBKTNV-1" source="3TPBliiVLT5k9kqOGAwY-0" target="3TPBliiVLT5k9kqOGAwY-55" edge="1">
          <mxGeometry relative="1" as="geometry">
            <mxPoint x="437.5" y="210" as="targetPoint" />
          </mxGeometry>
        </mxCell>
        <mxCell id="3TPBliiVLT5k9kqOGAwY-0" value="Lê ID na EEPROM" style="rounded=1;whiteSpace=wrap;html=1;fontSize=12;glass=0;strokeWidth=1;shadow=0;fillColor=#dae8fc;strokeColor=#6c8ebf;" parent="WIyWlLk6GJQsqaUBKTNV-1" vertex="1">
          <mxGeometry x="382.5" y="130" width="120" height="50" as="geometry" />
        </mxCell>
        <mxCell id="Iqx2rQo066xpERLR5dnv-3" style="edgeStyle=orthogonalEdgeStyle;rounded=0;orthogonalLoop=1;jettySize=auto;html=1;" edge="1" parent="WIyWlLk6GJQsqaUBKTNV-1" source="3TPBliiVLT5k9kqOGAwY-6">
          <mxGeometry relative="1" as="geometry">
            <mxPoint x="442.8904109589041" y="350.30136986301375" as="targetPoint" />
          </mxGeometry>
        </mxCell>
        <mxCell id="3TPBliiVLT5k9kqOGAwY-6" value="Solicitar novo ID da central" style="rounded=1;whiteSpace=wrap;html=1;fontSize=12;glass=0;strokeWidth=1;shadow=0;fillColor=#d5e8d4;strokeColor=#82b366;" parent="WIyWlLk6GJQsqaUBKTNV-1" vertex="1">
          <mxGeometry x="383" y="280" width="120" height="40" as="geometry" />
        </mxCell>
        <mxCell id="3TPBliiVLT5k9kqOGAwY-46" value="Main Loop do Módúlos Periféricos" style="rounded=1;whiteSpace=wrap;html=1;fillColor=#f5f5f5;gradientColor=#b3b3b3;strokeColor=#666666;" parent="WIyWlLk6GJQsqaUBKTNV-1" vertex="1">
          <mxGeometry x="592.5" y="50" width="220" height="30" as="geometry" />
        </mxCell>
        <mxCell id="3TPBliiVLT5k9kqOGAwY-52" value="Não" style="edgeStyle=orthogonalEdgeStyle;rounded=0;orthogonalLoop=1;jettySize=auto;html=1;exitX=1;exitY=0.5;exitDx=0;exitDy=0;entryX=1;entryY=0.5;entryDx=0;entryDy=0;" parent="WIyWlLk6GJQsqaUBKTNV-1" source="3TPBliiVLT5k9kqOGAwY-50" target="3TPBliiVLT5k9kqOGAwY-6" edge="1">
          <mxGeometry x="-0.7205" y="1" relative="1" as="geometry">
            <Array as="points">
              <mxPoint x="493" y="370" />
              <mxPoint x="540" y="370" />
              <mxPoint x="540" y="300" />
            </Array>
            <mxPoint x="1" as="offset" />
          </mxGeometry>
        </mxCell>
        <mxCell id="Iqx2rQo066xpERLR5dnv-5" value="Sim" style="edgeStyle=orthogonalEdgeStyle;rounded=0;orthogonalLoop=1;jettySize=auto;html=1;entryX=0.429;entryY=-0.03;entryDx=0;entryDy=0;entryPerimeter=0;" edge="1" parent="WIyWlLk6GJQsqaUBKTNV-1" source="3TPBliiVLT5k9kqOGAwY-50" target="3TPBliiVLT5k9kqOGAwY-64">
          <mxGeometry x="-0.5091" relative="1" as="geometry">
            <Array as="points">
              <mxPoint x="342" y="367" />
              <mxPoint x="342" y="387" />
              <mxPoint x="342" y="387" />
            </Array>
            <mxPoint as="offset" />
          </mxGeometry>
        </mxCell>
        <mxCell id="3TPBliiVLT5k9kqOGAwY-50" value="&lt;div&gt;Central &lt;br&gt;&lt;/div&gt;&lt;div&gt;respondeu?&lt;/div&gt;" style="shape=parallelogram;perimeter=parallelogramPerimeter;whiteSpace=wrap;html=1;fixedSize=1;fillColor=#fff2cc;strokeColor=#d6b656;" parent="WIyWlLk6GJQsqaUBKTNV-1" vertex="1">
          <mxGeometry x="379.5" y="350" width="125" height="38" as="geometry" />
        </mxCell>
        <mxCell id="Iqx2rQo066xpERLR5dnv-1" style="edgeStyle=orthogonalEdgeStyle;rounded=0;orthogonalLoop=1;jettySize=auto;html=1;exitX=0.5;exitY=1;exitDx=0;exitDy=0;entryX=0.5;entryY=0;entryDx=0;entryDy=0;" edge="1" parent="WIyWlLk6GJQsqaUBKTNV-1" source="3TPBliiVLT5k9kqOGAwY-55" target="3TPBliiVLT5k9kqOGAwY-6">
          <mxGeometry relative="1" as="geometry">
            <Array as="points">
              <mxPoint x="443" y="280" />
            </Array>
          </mxGeometry>
        </mxCell>
        <mxCell id="3TPBliiVLT5k9kqOGAwY-55" value="Conectar na rede usando ID registrado" style="rounded=1;whiteSpace=wrap;html=1;fontSize=12;glass=0;strokeWidth=1;shadow=0;fillColor=#dae8fc;strokeColor=#6c8ebf;" parent="WIyWlLk6GJQsqaUBKTNV-1" vertex="1">
          <mxGeometry x="383" y="211" width="120" height="40" as="geometry" />
        </mxCell>
        <mxCell id="Iqx2rQo066xpERLR5dnv-2" style="edgeStyle=orthogonalEdgeStyle;rounded=0;orthogonalLoop=1;jettySize=auto;html=1;entryX=0.5;entryY=0;entryDx=0;entryDy=0;" edge="1" parent="WIyWlLk6GJQsqaUBKTNV-1" source="3TPBliiVLT5k9kqOGAwY-63" target="3TPBliiVLT5k9kqOGAwY-68">
          <mxGeometry relative="1" as="geometry" />
        </mxCell>
        <mxCell id="3TPBliiVLT5k9kqOGAwY-63" value="Salvar novo ID na EEPROM" style="rounded=1;whiteSpace=wrap;html=1;fontSize=12;glass=0;strokeWidth=1;shadow=0;fillColor=#dae8fc;strokeColor=#6c8ebf;" parent="WIyWlLk6GJQsqaUBKTNV-1" vertex="1">
          <mxGeometry x="388.51" y="460" width="127.5" height="40" as="geometry" />
        </mxCell>
        <mxCell id="3TPBliiVLT5k9kqOGAwY-67" value="Não" style="edgeStyle=orthogonalEdgeStyle;rounded=0;orthogonalLoop=1;jettySize=auto;html=1;exitX=1;exitY=0.5;exitDx=0;exitDy=0;entryX=0.5;entryY=0;entryDx=0;entryDy=0;" parent="WIyWlLk6GJQsqaUBKTNV-1" source="3TPBliiVLT5k9kqOGAwY-64" target="3TPBliiVLT5k9kqOGAwY-63" edge="1">
          <mxGeometry x="-0.4393" relative="1" as="geometry">
            <Array as="points">
              <mxPoint x="452" y="426" />
              <mxPoint x="452" y="460" />
            </Array>
            <mxPoint as="offset" />
          </mxGeometry>
        </mxCell>
        <mxCell id="Iqx2rQo066xpERLR5dnv-6" value="Sim" style="edgeStyle=orthogonalEdgeStyle;rounded=0;orthogonalLoop=1;jettySize=auto;html=1;entryX=0.366;entryY=-0.017;entryDx=0;entryDy=0;entryPerimeter=0;" edge="1" parent="WIyWlLk6GJQsqaUBKTNV-1" source="3TPBliiVLT5k9kqOGAwY-64" target="3TPBliiVLT5k9kqOGAwY-66">
          <mxGeometry x="-0.3971" relative="1" as="geometry">
            <Array as="points">
              <mxPoint x="239" y="425" />
            </Array>
            <mxPoint as="offset" />
          </mxGeometry>
        </mxCell>
        <mxCell id="3TPBliiVLT5k9kqOGAwY-64" value="O ID é 0?" style="shape=parallelogram;perimeter=parallelogramPerimeter;whiteSpace=wrap;html=1;fixedSize=1;fillColor=#fff2cc;strokeColor=#d6b656;" parent="WIyWlLk6GJQsqaUBKTNV-1" vertex="1">
          <mxGeometry x="288.01" y="407" width="125" height="38" as="geometry" />
        </mxCell>
        <mxCell id="3TPBliiVLT5k9kqOGAwY-66" value="Módulo desativa" style="rounded=1;whiteSpace=wrap;html=1;fontSize=12;glass=0;strokeWidth=1;shadow=0;fillColor=#f8cecc;strokeColor=#b85450;" parent="WIyWlLk6GJQsqaUBKTNV-1" vertex="1">
          <mxGeometry x="192.51" y="461" width="127.5" height="40" as="geometry" />
        </mxCell>
        <mxCell id="3TPBliiVLT5k9kqOGAwY-80" style="edgeStyle=orthogonalEdgeStyle;rounded=0;orthogonalLoop=1;jettySize=auto;html=1;entryX=0.5;entryY=0;entryDx=0;entryDy=0;" parent="WIyWlLk6GJQsqaUBKTNV-1" source="3TPBliiVLT5k9kqOGAwY-68" target="3TPBliiVLT5k9kqOGAwY-81" edge="1">
          <mxGeometry relative="1" as="geometry">
            <mxPoint x="453" y="598" as="targetPoint" />
          </mxGeometry>
        </mxCell>
        <mxCell id="3TPBliiVLT5k9kqOGAwY-68" value="Conectar na rede usando ID registrado" style="rounded=1;whiteSpace=wrap;html=1;fontSize=12;glass=0;strokeWidth=2;shadow=0;fillColor=#dae8fc;strokeColor=#6c8ebf;" parent="WIyWlLk6GJQsqaUBKTNV-1" vertex="1">
          <mxGeometry x="393" y="527" width="120" height="40" as="geometry" />
        </mxCell>
        <mxCell id="3TPBliiVLT5k9kqOGAwY-83" style="edgeStyle=orthogonalEdgeStyle;rounded=0;orthogonalLoop=1;jettySize=auto;html=1;entryX=0.5;entryY=0;entryDx=0;entryDy=0;" parent="WIyWlLk6GJQsqaUBKTNV-1" source="3TPBliiVLT5k9kqOGAwY-81" target="3TPBliiVLT5k9kqOGAwY-82" edge="1">
          <mxGeometry relative="1" as="geometry" />
        </mxCell>
        <mxCell id="3TPBliiVLT5k9kqOGAwY-81" value="Ler dados dos sensores" style="rounded=1;whiteSpace=wrap;html=1;fontSize=12;glass=0;strokeWidth=1;shadow=0;fillColor=#dae8fc;strokeColor=#6c8ebf;" parent="WIyWlLk6GJQsqaUBKTNV-1" vertex="1">
          <mxGeometry x="382.63" y="593" width="140.75" height="30" as="geometry" />
        </mxCell>
        <mxCell id="3TPBliiVLT5k9kqOGAwY-85" style="edgeStyle=orthogonalEdgeStyle;rounded=0;orthogonalLoop=1;jettySize=auto;html=1;exitX=0.5;exitY=1;exitDx=0;exitDy=0;entryX=0.5;entryY=0;entryDx=0;entryDy=0;" parent="WIyWlLk6GJQsqaUBKTNV-1" source="3TPBliiVLT5k9kqOGAwY-82" target="3TPBliiVLT5k9kqOGAwY-84" edge="1">
          <mxGeometry relative="1" as="geometry" />
        </mxCell>
        <mxCell id="3TPBliiVLT5k9kqOGAwY-82" value="Enviar dados para a central" style="rounded=1;whiteSpace=wrap;html=1;fontSize=12;glass=0;strokeWidth=1;shadow=0;fillColor=#d5e8d4;strokeColor=#82b366;" parent="WIyWlLk6GJQsqaUBKTNV-1" vertex="1">
          <mxGeometry x="393.01" y="648" width="120" height="40" as="geometry" />
        </mxCell>
        <mxCell id="3TPBliiVLT5k9kqOGAwY-86" value="Não" style="edgeStyle=orthogonalEdgeStyle;rounded=0;orthogonalLoop=1;jettySize=auto;html=1;exitX=1;exitY=0.5;exitDx=0;exitDy=0;entryX=0;entryY=0.5;entryDx=0;entryDy=0;" parent="WIyWlLk6GJQsqaUBKTNV-1" source="3TPBliiVLT5k9kqOGAwY-84" target="3TPBliiVLT5k9kqOGAwY-82" edge="1">
          <mxGeometry x="0.0899" relative="1" as="geometry">
            <Array as="points">
              <mxPoint x="506" y="728" />
              <mxPoint x="360" y="728" />
              <mxPoint x="360" y="668" />
            </Array>
            <mxPoint as="offset" />
          </mxGeometry>
        </mxCell>
        <mxCell id="Q7FP9_OnJqvlH-NbxCvm-0" value="Sim" style="edgeStyle=orthogonalEdgeStyle;rounded=0;orthogonalLoop=1;jettySize=auto;html=1;entryX=0;entryY=0.5;entryDx=0;entryDy=0;" parent="WIyWlLk6GJQsqaUBKTNV-1" source="3TPBliiVLT5k9kqOGAwY-84" edge="1" target="3TPBliiVLT5k9kqOGAwY-88">
          <mxGeometry x="-0.2621" relative="1" as="geometry">
            <mxPoint x="453" y="778" as="targetPoint" />
            <mxPoint as="offset" />
            <Array as="points">
              <mxPoint x="450" y="792" />
            </Array>
          </mxGeometry>
        </mxCell>
        <mxCell id="3TPBliiVLT5k9kqOGAwY-84" value="&lt;div&gt;Central &lt;br&gt;&lt;/div&gt;&lt;div&gt;respondeu?&lt;/div&gt;" style="shape=parallelogram;perimeter=parallelogramPerimeter;whiteSpace=wrap;html=1;fixedSize=1;fillColor=#fff2cc;strokeColor=#d6b656;" parent="WIyWlLk6GJQsqaUBKTNV-1" vertex="1">
          <mxGeometry x="390.5" y="708" width="125" height="38" as="geometry" />
        </mxCell>
        <mxCell id="3TPBliiVLT5k9kqOGAwY-89" style="edgeStyle=orthogonalEdgeStyle;rounded=0;orthogonalLoop=1;jettySize=auto;html=1;entryX=0;entryY=0.5;entryDx=0;entryDy=0;" parent="WIyWlLk6GJQsqaUBKTNV-1" source="3TPBliiVLT5k9kqOGAwY-88" target="3TPBliiVLT5k9kqOGAwY-90" edge="1">
          <mxGeometry relative="1" as="geometry">
            <mxPoint x="580" y="778" as="targetPoint" />
          </mxGeometry>
        </mxCell>
        <mxCell id="3TPBliiVLT5k9kqOGAwY-88" value="Liberar endereço alocado pela rede" style="rounded=1;whiteSpace=wrap;html=1;fontSize=12;glass=0;strokeWidth=1;shadow=0;fillColor=#dae8fc;strokeColor=#6c8ebf;" parent="WIyWlLk6GJQsqaUBKTNV-1" vertex="1">
          <mxGeometry x="480" y="772" width="107" height="40" as="geometry" />
        </mxCell>
        <mxCell id="3TPBliiVLT5k9kqOGAwY-96" style="edgeStyle=orthogonalEdgeStyle;rounded=0;orthogonalLoop=1;jettySize=auto;html=1;entryX=0.5;entryY=1;entryDx=0;entryDy=0;" parent="WIyWlLk6GJQsqaUBKTNV-1" source="3TPBliiVLT5k9kqOGAwY-90" target="3TPBliiVLT5k9kqOGAwY-92" edge="1">
          <mxGeometry relative="1" as="geometry" />
        </mxCell>
        <mxCell id="3TPBliiVLT5k9kqOGAwY-90" value="&lt;div&gt;Entrar em modo &lt;br&gt;&lt;/div&gt;&lt;div&gt;&lt;i&gt;DeepSleep&lt;/i&gt;&lt;br&gt;&lt;/div&gt;" style="rounded=1;whiteSpace=wrap;html=1;fontSize=12;glass=0;strokeWidth=1;shadow=0;fillColor=#dae8fc;strokeColor=#6c8ebf;" parent="WIyWlLk6GJQsqaUBKTNV-1" vertex="1">
          <mxGeometry x="610" y="772" width="107" height="40" as="geometry" />
        </mxCell>
        <mxCell id="3TPBliiVLT5k9kqOGAwY-95" style="edgeStyle=orthogonalEdgeStyle;rounded=0;orthogonalLoop=1;jettySize=auto;html=1;exitX=0.5;exitY=0;exitDx=0;exitDy=0;endArrow=classic;endFill=1;entryX=1;entryY=0.5;entryDx=0;entryDy=0;" parent="WIyWlLk6GJQsqaUBKTNV-1" source="3TPBliiVLT5k9kqOGAwY-92" edge="1" target="3TPBliiVLT5k9kqOGAwY-68">
          <mxGeometry relative="1" as="geometry">
            <mxPoint x="596.0754999999999" y="528.0799999999999" as="targetPoint" />
          </mxGeometry>
        </mxCell>
        <mxCell id="3TPBliiVLT5k9kqOGAwY-92" value="Acordar" style="rounded=1;whiteSpace=wrap;html=1;fontSize=12;glass=0;strokeWidth=1;shadow=0;fillColor=#dae8fc;strokeColor=#6c8ebf;" parent="WIyWlLk6GJQsqaUBKTNV-1" vertex="1">
          <mxGeometry x="631.75" y="648" width="63.5" height="30" as="geometry" />
        </mxCell>
      </root>
    </mxGraphModel>
  </diagram>
</mxfile>
